<?xml version="1.0" encoding="utf-8"?>
<svg xmlns="http://www.w3.org/2000/svg"
	xmlns:xlink="http://www.w3.org/1999/xlink"
	width="20px" height="20px" viewBox="0 0 20 20">
<path fillRule="evenodd" d="M 15.85 19.99C 15.85 19.99 4.15 19.99 4.15 19.99 1.85 19.99-0.01 18.12-0.01 15.82-0.01 15.82-0.01 4.17-0.01 4.17-0.01 1.88 1.85 0.01 4.15 0.01 4.15 0.01 15.85 0.01 15.85 0.01 18.15 0.01 20.01 1.88 20.01 4.17 20.01 4.17 20.01 15.82 20.01 15.82 20.01 18.12 18.15 19.99 15.85 19.99ZM 19 4C 19 2.34 17.66 1 16 1 16 1 4 1 4 1 2.34 1 1 2.34 1 4 1 4 1 16 1 16 1 17.66 2.34 19 4 19 4 19 16 19 16 19 17.66 19 19 17.66 19 16 19 16 19 4 19 4ZM 10.44 12.89C 10.44 12.89 8.68 14.65 8.68 14.65 8.68 14.65 8.67 14.65 8.67 14.65 8.67 14.65 8.67 14.65 8.67 14.65 8.67 14.65 6.91 12.89 6.91 12.89 6.91 12.89 6.91 12.89 6.91 12.89 6.91 12.89 3.84 9.82 3.84 9.82 3.84 9.82 5.6 8.05 5.6 8.05 5.6 8.05 8.67 11.12 8.67 11.12 8.67 11.12 14.6 5.19 14.6 5.19 14.6 5.19 16.37 6.96 16.37 6.96 16.37 6.96 10.44 12.89 10.44 12.89 10.44 12.89 10.44 12.89 10.44 12.89Z" fill="rgb(255,255,255)"/></svg>
