<?xml version="1.0" encoding="utf-8"?>
<svg xmlns="http://www.w3.org/2000/svg"
	xmlns:xlink="http://www.w3.org/1999/xlink"
	width="20px" height="20px" viewBox="0 0 20 20">
<path fillRule="evenodd" d="M 4.15 0.01C 4.15 0.01 15.85 0.01 15.85 0.01 18.15 0.01 20.01 1.88 20.01 4.17 20.01 4.17 20.01 15.82 20.01 15.82 20.01 18.12 18.15 19.99 15.85 19.99 15.85 19.99 4.15 19.99 4.15 19.99 1.85 19.99-0.01 18.12-0.01 15.82-0.01 15.82-0.01 4.17-0.01 4.17-0.01 1.88 1.85 0.01 4.15 0.01ZM 4 1C 4 1 16 1 16 1 17.66 1 19 2.34 19 4 19 4 19 16 19 16 19 17.66 17.66 19 16 19 16 19 4 19 4 19 2.34 19 1 17.66 1 16 1 16 1 4 1 4 1 2.34 2.34 1 4 1Z" fill="rgb(255,255,255)"/></svg>
