<?xml version="1.0" encoding="utf-8"?>
<svg xmlns="http://www.w3.org/2000/svg"
	xmlns:xlink="http://www.w3.org/1999/xlink"
	width="11px" height="11px" viewBox="0 0 11 11">
<path fillRule="evenodd" d="M 11.01 1.13C 11.01 1.13 6.64 5.5 6.64 5.5 6.64 5.5 11 9.86 11 9.86 11 9.86 10.29 10.57 10.29 10.57 10.29 10.57 5.93 6.21 5.93 6.21 5.93 6.21 1.58 10.56 1.58 10.56 1.58 10.56 0.87 9.85 0.87 9.85 0.87 9.85 5.22 5.5 5.22 5.5 5.22 5.5 0.86 1.14 0.86 1.14 0.86 1.14 1.57 0.43 1.57 0.43 1.57 0.43 5.93 4.79 5.93 4.79 5.93 4.79 10.3 0.42 10.3 0.42 10.3 0.42 11.01 1.13 11.01 1.13Z" fill="rgb(52,52,52)"/></svg>
